<svg xmlns="http://www.w3.org/2000/svg" viewBox="0 0 24 24" fill="currentColor"><path d="M12 0.5C5.73 0.5 0.75 5.64 0.75 12.09c0 5.17 3.29 9.56 7.86 11.11.58.11.79-.25.79-.56v-2.1c-3.2.71-3.88-1.58-3.88-1.58-.53-1.37-1.29-1.74-1.29-1.74-1.05-.74.08-.72.08-.72 1.16.08 1.77 1.22 1.77 1.22 1.03 1.78 2.71 1.27 3.37.97.1-.76.4-1.27.72-1.57-2.56-.3-5.26-1.31-5.26-5.9 0-1.31.45-2.38 1.2-3.22-.12-.3-.52-1.53.11-3.18 0 0 .98-.32 3.21 1.23.93-.26 1.93-.4 2.92-.4.99 0 1.99.14 2.92.4 2.23-1.55 3.21-1.23 3.21-1.23.63 1.65.23 2.88.11 3.18.75.84 1.2 1.91 1.2 3.22 0 4.6-2.71 5.59-5.29 5.88.41.36.78 1.08.78 2.18v3.24c0 .31.21.68.8.56 4.57-1.55 7.86-5.94 7.86-11.11C23.25 5.64 18.27 0.5 12 0.5z"/></svg>